<svg xmlns="http://www.w3.org/2000/svg" xmlns:svgjs="http://svgjs.com/svgjs" xmlns:xlink="http://www.w3.org/1999/xlink" style="enable-background:new 0 0 512 512" width="512" height="512" x="0" y="0" version="1.1" viewBox="0 0 443.294 443.294" xml:space="preserve"><g><path xmlns="http://www.w3.org/2000/svg" fill="#fff" d="m138.53 193.941h166.235v27.706h-166.235z" data-original="#000000"/><path xmlns="http://www.w3.org/2000/svg" fill="#fff" d="m138.53 277.059h83.118v27.706h-83.118z" data-original="#000000"/><path xmlns="http://www.w3.org/2000/svg" fill="#fff" d="m383.824 114.882-110.824-110.824c-2.597-2.597-6.114-4.058-9.794-4.058h-180.088c-15.274 0-27.706 12.432-27.706 27.706v387.882c0 15.273 12.432 27.706 27.706 27.706h277.059c15.273 0 27.706-12.432 27.706-27.706v-290.912c-.001-3.679-1.462-7.197-4.059-9.794zm-106.765-67.587 63.529 63.529h-63.529zm83.117 368.294h-277.058v-387.882h166.235v83.118c0 15.273 12.432 27.706 27.706 27.706h83.118v277.058z" data-original="#000000"/></g></svg>